<svg viewBox="0 0 11 11" fill="none" xmlns="http://www.w3.org/2000/svg">
<path fill-rule="evenodd" clip-rule="evenodd" d="M2.70708 0.293041C2.51848 0.110883 2.26588 0.0100885 2.00368 0.0123669C1.74148 0.0146453 1.49067 0.119815 1.30526 0.305223C1.11985 0.490631 1.01469 0.741444 1.01241 1.00364C1.01013 1.26584 1.11092 1.51844 1.29308 1.70704L4.58608 5.00004L1.29308 8.29304C1.19757 8.38529 1.12139 8.49563 1.06898 8.61764C1.01657 8.73964 0.988985 8.87086 0.987831 9.00364C0.986677 9.13642 1.01198 9.2681 1.06226 9.39099C1.11254 9.51389 1.18679 9.62554 1.28069 9.71944C1.37458 9.81333 1.48623 9.88758 1.60913 9.93786C1.73202 9.98814 1.8637 10.0134 1.99648 10.0123C2.12926 10.0111 2.26048 9.98355 2.38249 9.93114C2.50449 9.87873 2.61483 9.80255 2.70708 9.70704L6.00008 6.41404L9.29308 9.70704C9.48168 9.8892 9.73429 9.98999 9.99648 9.98772C10.2587 9.98544 10.5095 9.88027 10.6949 9.69486C10.8803 9.50945 10.9855 9.25864 10.9878 8.99644C10.99 8.73425 10.8892 8.48164 10.7071 8.29304L7.41408 5.00004L10.7071 1.70704C10.8892 1.51844 10.99 1.26584 10.9878 1.00364C10.9855 0.741444 10.8803 0.490631 10.6949 0.305223C10.5095 0.119815 10.2587 0.0146453 9.99648 0.0123669C9.73429 0.0100885 9.48168 0.110883 9.29308 0.293041L6.00008 3.58604L2.70708 0.293041Z" fill="white" fill-opacity="0.6"/>
</svg>
