<svg width="24" height="24" viewBox="0 0 24 24" fill="none" xmlns="http://www.w3.org/2000/svg">
<path d="M12 17.088L7.95657 13.0434L8.76457 12.2217L11.4286 14.8857V5H12.5714V14.8857L15.2343 12.2229L16.0434 13.0434L12 17.088ZM5.84571 21C5.32 21 4.88114 20.824 4.52914 20.472C4.17638 20.1192 4 19.68 4 19.1543V16.3851H5.14286V19.1543C5.14286 19.3295 5.216 19.4907 5.36229 19.6377C5.50933 19.784 5.67048 19.8571 5.84571 19.8571H18.1543C18.3295 19.8571 18.4907 19.784 18.6377 19.6377C18.784 19.4907 18.8571 19.3295 18.8571 19.1543V16.3851H20V19.1543C20 19.68 19.824 20.1189 19.472 20.4709C19.1192 20.8236 18.68 21 18.1543 21H5.84571Z"/>
</svg>
