<svg width="20" height="20" viewBox="0 0 20 20" fill="none" xmlns="http://www.w3.org/2000/svg">
<path d="M17.181 2.927C16.9075 2.63937 16.5792 2.40939 16.2154 2.25059C15.8516 2.09179 15.4598 2.00739 15.0629 2.00236C14.666 1.99733 14.2721 2.07177 13.9044 2.22129C13.5368 2.37081 13.2027 2.5924 12.922 2.873L3.54699 12.248C3.21931 12.5756 2.99176 12.9897 2.89099 13.442L2.01399 17.392C1.99569 17.4741 1.9984 17.5595 2.02185 17.6402C2.0453 17.721 2.08875 17.7945 2.14816 17.8541C2.20758 17.9136 2.28106 17.9571 2.36178 17.9807C2.44251 18.0043 2.52788 18.0072 2.60999 17.989L6.53699 17.116C7.00443 17.0119 7.4325 16.7767 7.77099 16.438L17.129 7.08C17.6775 6.53124 17.9899 5.7899 17.9996 5.01408C18.0094 4.23825 17.7156 3.48932 17.181 2.927ZM13.629 3.58C13.8119 3.39445 14.0297 3.24692 14.2699 3.14592C14.5101 3.04491 14.7679 2.99243 15.0284 2.9915C15.289 2.99057 15.5471 3.0412 15.788 3.14047C16.0289 3.23975 16.2478 3.38571 16.432 3.56995C16.6163 3.75419 16.7622 3.97306 16.8615 4.21396C16.9608 4.45486 17.0114 4.71302 17.0105 4.97357C17.0096 5.23412 16.9571 5.49191 16.8561 5.73209C16.7551 5.97227 16.6076 6.19009 16.422 6.373L15.751 7.044L12.958 4.252L13.629 3.58ZM12.251 4.96L15.044 7.752L7.06399 15.732C6.85994 15.9363 6.60185 16.0782 6.31999 16.141L3.16 16.843L3.868 13.66C3.927 13.393 4.061 13.149 4.254 12.956L12.251 4.96Z" fill="#292929"/>
</svg>
