<svg width="20" height="18" viewBox="0 0 20 18" fill="none" xmlns="http://www.w3.org/2000/svg">
<path d="M18.125 16.5H1.875C0.8375 16.5 0 15.6625 0 14.625V3.375C0 2.3375 0.8375 1.5 1.875 1.5H18.125C19.1625 1.5 20 2.3375 20 3.375V14.625C20 15.6625 19.1625 16.5 18.125 16.5ZM1.875 2.75C1.525 2.75 1.25 3.025 1.25 3.375V14.625C1.25 14.975 1.525 15.25 1.875 15.25H18.125C18.475 15.25 18.75 14.975 18.75 14.625V3.375C18.75 3.025 18.475 2.75 18.125 2.75H1.875Z" fill="#292929"/>
<path d="M10 11.45C9.125 11.45 8.325 11.1 7.725 10.4625L1.1625 3.4875C0.924996 3.2375 0.937496 2.8375 1.1875 2.6C1.4375 2.3625 1.8375 2.375 2.075 2.625L8.6375 9.6C9.35 10.3625 10.65 10.3625 11.3625 9.6L17.925 2.6375C18.1625 2.3875 18.5625 2.375 18.8125 2.6125C19.0625 2.85 19.075 3.25 18.8375 3.5L12.275 10.475C11.675 11.1125 10.875 11.4625 10 11.4625V11.45Z" fill="#292929"/>
</svg>
