<svg viewBox="0 0 20 20" fill="none" xmlns="http://www.w3.org/2000/svg">
<g clip-path="url(#clip0_48_901)">
<path d="M18.7276 9.60554L10.3943 1.27221C10.2902 1.16874 10.1494 1.11066 10.0026 1.11066C9.85586 1.11066 9.71505 1.16874 9.61096 1.27221L1.27763 9.60554C1.18662 9.71182 1.13906 9.84853 1.14446 9.98835C1.14986 10.1282 1.20782 10.2608 1.30676 10.3597C1.4057 10.4587 1.53834 10.5166 1.67816 10.522C1.81798 10.5274 1.95468 10.4799 2.06096 10.3889L9.99985 2.44999L17.9387 10.3944C18.045 10.4854 18.1817 10.533 18.3215 10.5276C18.4614 10.5222 18.594 10.4642 18.6929 10.3653C18.7919 10.2664 18.8498 10.1337 18.8552 9.9939C18.8606 9.85408 18.8131 9.71737 18.7221 9.6111L18.7276 9.60554Z" fill="white"/>
<path d="M15.5557 17.7778H12.7779V12.2222H7.22239V17.7778H4.44461V10L3.3335 11.1111V17.7778C3.3335 18.0725 3.45056 18.3551 3.65893 18.5635C3.86731 18.7718 4.14992 18.8889 4.44461 18.8889H8.3335V13.3333H11.6668V18.8889H15.5557C15.8504 18.8889 16.133 18.7718 16.3414 18.5635C16.5498 18.3551 16.6668 18.0725 16.6668 17.7778V10.9778L15.5557 9.86667V17.7778Z" fill="white"/>
</g>
<defs>
<clipPath id="clip0_48_901">
<rect width="20" height="20" fill="white"/>
</clipPath>
</defs>
</svg>
