<svg viewBox="0 0 20 20" fill="none" xmlns="http://www.w3.org/2000/svg">
<g clip-path="url(#clip0_48_933)">
<g clip-path="url(#clip1_48_933)">
<path d="M7.61375 12.3277L12.3278 7.61361M5.84598 9.38137L4.07821 11.1491C3.45309 11.7743 3.1019 12.6221 3.1019 13.5062C3.1019 14.3902 3.45309 15.2381 4.07821 15.8632C4.70334 16.4883 5.55118 16.8395 6.43524 16.8395C7.31929 16.8395 8.16714 16.4883 8.79226 15.8632L10.56 14.0954M9.38152 5.84584L11.1493 4.07807C11.7744 3.45295 12.6222 3.10176 13.5063 3.10176C14.3904 3.10176 15.2382 3.45295 15.8633 4.07807C16.4884 4.7032 16.8396 5.55104 16.8396 6.4351C16.8396 7.31915 16.4884 8.167 15.8633 8.79212L14.0956 10.5599" stroke="white" stroke-linecap="round" stroke-linejoin="round"/>
</g>
</g>
<defs>
<clipPath id="clip0_48_933">
<rect width="20" height="20" fill="white"/>
</clipPath>
<clipPath id="clip1_48_933">
<rect width="20" height="20" fill="white" transform="translate(-4.17139 9.97063) rotate(-45)"/>
</clipPath>
</defs>
</svg>
