<svg viewBox="0 0 20 20" xmlns="http://www.w3.org/2000/svg">
<path d="M2.5 3.75V16.244" stroke="white" stroke-linecap="round"/>
<path d="M17.5 7.5V16.25" stroke="white" stroke-linecap="round" stroke-linejoin="round"/>
<path d="M5 1.25H11.25" stroke="white" stroke-linecap="round" stroke-linejoin="round"/>
<path d="M5 18.75H15" stroke="white" stroke-linecap="round"/>
<path d="M17.5 16.25C17.5068 17.4986 16.25 18.75 15 18.75" stroke="white" stroke-linecap="round" stroke-linejoin="round"/>
<path d="M2.5 16.25C2.5 17.5 3.75 18.75 5 18.75" stroke="white" stroke-linecap="round" stroke-linejoin="round"/>
<path d="M2.5 3.74818C2.5 2.5 3.75 1.27784 5 1.25" stroke="white" stroke-linecap="round" stroke-linejoin="round"/>
<path d="M17.4932 7.50561L11.25 1.25" stroke="white" stroke-linecap="round" stroke-linejoin="round"/>
<path d="M11.25 5C11.2538 6.2432 12.505 7.5 13.75 7.5" stroke="white" stroke-linecap="round" stroke-linejoin="round"/>
<path d="M11.25 5V1.25" stroke="white" stroke-linecap="round" stroke-linejoin="round"/>
<path d="M13.75 7.5H17.5" stroke="white" stroke-linecap="round" stroke-linejoin="round"/>
<path d="M5 16.25H8.75" stroke="white" stroke-linecap="round" stroke-linejoin="round"/>
<path d="M5 13.75H11.25" stroke="white" stroke-linecap="round" stroke-linejoin="round"/>
<path d="M5 11.25H8.75" stroke="white" stroke-linecap="round" stroke-linejoin="round"/>
</svg>
