<svg width="20" height="20" viewBox="0 0 20 20" fill="none" xmlns="http://www.w3.org/2000/svg">
<path d="M10 1.66667C8.35183 1.66667 6.74066 2.15541 5.37025 3.07108C3.99984 3.98677 2.93174 5.28825 2.30101 6.81098C1.67027 8.33367 1.50525 10.0093 1.82679 11.6258C2.14833 13.2423 2.94201 14.7271 4.10745 15.8926C5.27288 17.058 6.75774 17.8517 8.37425 18.1733C9.99075 18.4948 11.6663 18.3298 13.189 17.699C14.7118 17.0683 16.0132 16.0002 16.9289 14.6298C17.8446 13.2593 18.3333 11.6482 18.3333 10C18.3333 8.90567 18.1177 7.82202 17.699 6.81098C17.2802 5.79993 16.6664 4.88127 15.8926 4.10744C15.1187 3.33363 14.2001 2.71979 13.189 2.301C12.178 1.88222 11.0943 1.66667 10 1.66667ZM10 16.6667C8.6815 16.6667 7.39253 16.2757 6.2962 15.5432C5.19988 14.8106 4.34539 13.7694 3.84081 12.5513C3.33623 11.3331 3.2042 9.99258 3.46143 8.69942C3.71867 7.40619 4.35361 6.21831 5.28596 5.28596C6.21831 4.35361 7.40619 3.71867 8.69942 3.46143C9.99258 3.2042 11.3331 3.33622 12.5512 3.8408C13.7694 4.34539 14.8106 5.19987 15.5432 6.2962C16.2757 7.39253 16.6667 8.68142 16.6667 10C16.6647 11.7675 15.9617 13.462 14.7118 14.7118C13.462 15.9617 11.7675 16.6647 10 16.6667ZM9.8995 12.375C9.71 12.375 9.52467 12.4312 9.36708 12.5365C9.2095 12.6418 9.08667 12.7915 9.01408 12.9666C8.94158 13.1417 8.92258 13.3344 8.95958 13.5203C8.99658 13.7062 9.08783 13.8769 9.22183 14.011C9.35592 14.145 9.52667 14.2363 9.71258 14.2733C9.89842 14.3103 10.0912 14.2913 10.2662 14.2188C10.4413 14.1462 10.591 14.0233 10.6963 13.8658C10.8017 13.7082 10.8578 13.5228 10.8578 13.3333C10.8578 13.0792 10.7568 12.8354 10.5772 12.6557C10.3974 12.476 10.1537 12.375 9.8995 12.375ZM10.1147 5.80975C9.72883 5.80691 9.34675 5.88575 8.9935 6.04108C8.64017 6.19642 8.3238 6.42473 8.06505 6.71103C7.80629 6.99734 7.61104 7.33515 7.49211 7.70227C7.37318 8.06939 7.33328 8.4575 7.375 8.84117H8.95833C8.95833 7.90733 9.36933 7.39342 10.1147 7.39342C10.369 7.37083 10.6221 7.44871 10.8197 7.61037C11.0172 7.77203 11.1437 8.00462 11.1718 8.25833C11.1718 8.72583 11.0172 8.85567 10.5282 9.19583C10.0894 9.43792 9.72558 9.796 9.47667 10.2309C9.22775 10.6658 9.10317 11.1608 9.11667 11.6618H10.7C10.7 11.0043 10.9442 10.8342 11.4317 10.4956C11.8343 10.2776 12.1701 9.95425 12.4032 9.56025C12.6364 9.16617 12.7582 8.71617 12.7555 8.25833C12.7283 7.58404 12.4352 6.94794 11.9404 6.4891C11.4456 6.03026 10.7892 5.78601 10.1147 5.80975Z" fill="white" fill-opacity="0.6"/>
</svg>
