<svg viewBox="0 0 20 20" fill="none" xmlns="http://www.w3.org/2000/svg">
<path d="M7.14302 13.7476V6.19049M10.0002 13.7952V10M12.8573 13.8095V8.09525M5.23826 3.33334H14.7621C15.2672 3.33334 15.7517 3.53402 16.1089 3.89124C16.4661 4.24845 16.6668 4.73293 16.6668 5.23811V14.7619C16.6668 15.2671 16.4661 15.7516 16.1089 16.1088C15.7517 16.466 15.2672 16.6667 14.7621 16.6667H5.23826C4.73308 16.6667 4.2486 16.466 3.89139 16.1088C3.53418 15.7516 3.3335 15.2671 3.3335 14.7619V5.23811C3.3335 4.73293 3.53418 4.24845 3.89139 3.89124C4.2486 3.53402 4.73308 3.33334 5.23826 3.33334Z" stroke="white" stroke-linecap="round" stroke-linejoin="round"/>
</svg>
