<svg viewBox="0 0 20 20" xmlns="http://www.w3.org/2000/svg">
<path d="M18.4375 10.625V15.625C18.4375 15.8736 18.3387 16.1121 18.1629 16.2879C17.9871 16.4637 17.7486 16.5625 17.5 16.5625H2.5C2.25136 16.5625 2.0129 16.4637 1.83709 16.2879C1.66127 16.1121 1.5625 15.8736 1.5625 15.625V10.625C1.5625 10.3764 1.66127 10.1379 1.83709 9.96209C2.0129 9.78627 2.25136 9.6875 2.5 9.6875H6.25C6.33288 9.6875 6.41237 9.72043 6.47097 9.77903C6.52958 9.83764 6.5625 9.91712 6.5625 10C6.5625 10.0829 6.52958 10.1624 6.47097 10.221C6.41237 10.2796 6.33288 10.3125 6.25 10.3125H2.5C2.41712 10.3125 2.33763 10.3454 2.27903 10.404C2.22042 10.4626 2.1875 10.5421 2.1875 10.625V15.625C2.1875 15.7079 2.22042 15.7874 2.27903 15.846C2.33763 15.9046 2.41712 15.9375 2.5 15.9375H17.5C17.5829 15.9375 17.6624 15.9046 17.721 15.846C17.7796 15.7874 17.8125 15.7079 17.8125 15.625V10.625C17.8125 10.5421 17.7796 10.4626 17.721 10.404C17.6624 10.3454 17.5829 10.3125 17.5 10.3125H13.75C13.6671 10.3125 13.5876 10.2796 13.529 10.221C13.4704 10.1624 13.4375 10.0829 13.4375 10C13.4375 9.91712 13.4704 9.83764 13.529 9.77903C13.5876 9.72043 13.6671 9.6875 13.75 9.6875H17.5C17.7486 9.6875 17.9871 9.78627 18.1629 9.96209C18.3387 10.1379 18.4375 10.3764 18.4375 10.625ZM6.47109 5.8461L9.6875 2.62969V10C9.6875 10.0829 9.72042 10.1624 9.77903 10.221C9.83763 10.2796 9.91712 10.3125 10 10.3125C10.0829 10.3125 10.1624 10.2796 10.221 10.221C10.2796 10.1624 10.3125 10.0829 10.3125 10V2.62969L13.5289 5.8461C13.5579 5.87513 13.5924 5.89816 13.6303 5.91387C13.6683 5.92959 13.7089 5.93768 13.75 5.93768C13.7911 5.93768 13.8317 5.92959 13.8697 5.91387C13.9076 5.89816 13.9421 5.87513 13.9711 5.8461C14.0001 5.81706 14.0232 5.78259 14.0389 5.74466C14.0546 5.70672 14.0627 5.66606 14.0627 5.625C14.0627 5.58394 14.0546 5.54328 14.0389 5.50535C14.0232 5.46741 14.0001 5.43294 13.9711 5.40391L10.2211 1.65391C10.1921 1.62485 10.1576 1.6018 10.1197 1.58608C10.0817 1.57035 10.0411 1.56226 10 1.56226C9.95893 1.56226 9.91827 1.57035 9.88033 1.58608C9.84239 1.6018 9.80793 1.62485 9.77891 1.65391L6.02891 5.40391C5.99987 5.43294 5.97684 5.46741 5.96113 5.50535C5.94541 5.54328 5.93733 5.58394 5.93733 5.625C5.93733 5.66606 5.94541 5.70672 5.96113 5.74466C5.97684 5.78259 5.99987 5.81706 6.02891 5.8461C6.05794 5.87513 6.09241 5.89816 6.13034 5.91387C6.16828 5.92959 6.20894 5.93768 6.25 5.93768C6.29106 5.93768 6.33172 5.92959 6.36966 5.91387C6.40759 5.89816 6.44206 5.87513 6.47109 5.8461ZM15.3125 13.125C15.3125 13.0014 15.2758 12.8806 15.2072 12.7778C15.1385 12.675 15.0409 12.5949 14.9267 12.5476C14.8125 12.5003 14.6868 12.4879 14.5656 12.512C14.4443 12.5361 14.333 12.5957 14.2456 12.6831C14.1581 12.7705 14.0986 12.8818 14.0745 13.0031C14.0504 13.1243 14.0628 13.25 14.1101 13.3642C14.1574 13.4784 14.2375 13.576 14.3403 13.6447C14.443 13.7133 14.5639 13.75 14.6875 13.75C14.8533 13.75 15.0122 13.6842 15.1294 13.5669C15.2467 13.4497 15.3125 13.2908 15.3125 13.125Z" fill="white"/>
</svg>
